<mxfile host="app.diagrams.net" modified="2023-07-11T05:36:24.012Z" agent="Mozilla/5.0 (Windows NT 10.0; Win64; x64) AppleWebKit/537.36 (KHTML, like Gecko) Chrome/114.0.0.0 Safari/537.36" etag="q1yBd2-JIBDVwYx-6jut" version="21.6.1" type="device">
  <diagram name="第 1 页" id="4QiLVzeE1tTqHgC0OgL6">
    <mxGraphModel dx="988" dy="520" grid="1" gridSize="10" guides="1" tooltips="1" connect="1" arrows="1" fold="1" page="1" pageScale="1" pageWidth="827" pageHeight="1169" math="0" shadow="0">
      <root>
        <mxCell id="0" />
        <mxCell id="1" parent="0" />
        <mxCell id="eZRgXxtGunZdMtfv_eY2-15" value="" style="rounded=0;whiteSpace=wrap;html=1;" vertex="1" parent="1">
          <mxGeometry x="120" y="200" width="80" height="80" as="geometry" />
        </mxCell>
        <mxCell id="eZRgXxtGunZdMtfv_eY2-16" value="" style="rounded=0;whiteSpace=wrap;html=1;" vertex="1" parent="1">
          <mxGeometry x="200" y="200" width="80" height="80" as="geometry" />
        </mxCell>
        <mxCell id="eZRgXxtGunZdMtfv_eY2-17" value="" style="rounded=0;whiteSpace=wrap;html=1;" vertex="1" parent="1">
          <mxGeometry x="280" y="200" width="80" height="80" as="geometry" />
        </mxCell>
        <mxCell id="eZRgXxtGunZdMtfv_eY2-18" value="" style="rounded=0;whiteSpace=wrap;html=1;" vertex="1" parent="1">
          <mxGeometry x="360" y="200" width="80" height="80" as="geometry" />
        </mxCell>
        <mxCell id="eZRgXxtGunZdMtfv_eY2-19" value="" style="rounded=0;whiteSpace=wrap;html=1;" vertex="1" parent="1">
          <mxGeometry x="120" y="280" width="80" height="80" as="geometry" />
        </mxCell>
        <mxCell id="eZRgXxtGunZdMtfv_eY2-20" value="" style="rounded=0;whiteSpace=wrap;html=1;" vertex="1" parent="1">
          <mxGeometry x="200" y="280" width="80" height="80" as="geometry" />
        </mxCell>
        <mxCell id="eZRgXxtGunZdMtfv_eY2-21" value="" style="rounded=0;whiteSpace=wrap;html=1;" vertex="1" parent="1">
          <mxGeometry x="280" y="280" width="80" height="80" as="geometry" />
        </mxCell>
        <mxCell id="eZRgXxtGunZdMtfv_eY2-22" value="" style="rounded=0;whiteSpace=wrap;html=1;" vertex="1" parent="1">
          <mxGeometry x="360" y="280" width="80" height="80" as="geometry" />
        </mxCell>
        <mxCell id="eZRgXxtGunZdMtfv_eY2-23" value="" style="rounded=0;whiteSpace=wrap;html=1;" vertex="1" parent="1">
          <mxGeometry x="120" y="360" width="80" height="80" as="geometry" />
        </mxCell>
        <mxCell id="eZRgXxtGunZdMtfv_eY2-24" value="" style="rounded=0;whiteSpace=wrap;html=1;" vertex="1" parent="1">
          <mxGeometry x="200" y="360" width="80" height="80" as="geometry" />
        </mxCell>
        <mxCell id="eZRgXxtGunZdMtfv_eY2-25" value="" style="rounded=0;whiteSpace=wrap;html=1;" vertex="1" parent="1">
          <mxGeometry x="280" y="360" width="80" height="80" as="geometry" />
        </mxCell>
        <mxCell id="eZRgXxtGunZdMtfv_eY2-26" value="" style="rounded=0;whiteSpace=wrap;html=1;" vertex="1" parent="1">
          <mxGeometry x="360" y="360" width="80" height="80" as="geometry" />
        </mxCell>
        <mxCell id="eZRgXxtGunZdMtfv_eY2-27" value="" style="rounded=0;whiteSpace=wrap;html=1;" vertex="1" parent="1">
          <mxGeometry x="120" y="440" width="80" height="80" as="geometry" />
        </mxCell>
        <mxCell id="eZRgXxtGunZdMtfv_eY2-28" value="" style="rounded=0;whiteSpace=wrap;html=1;" vertex="1" parent="1">
          <mxGeometry x="200" y="440" width="80" height="80" as="geometry" />
        </mxCell>
        <mxCell id="eZRgXxtGunZdMtfv_eY2-29" value="" style="rounded=0;whiteSpace=wrap;html=1;" vertex="1" parent="1">
          <mxGeometry x="280" y="440" width="80" height="80" as="geometry" />
        </mxCell>
        <mxCell id="eZRgXxtGunZdMtfv_eY2-30" value="" style="rounded=0;whiteSpace=wrap;html=1;" vertex="1" parent="1">
          <mxGeometry x="360" y="440" width="80" height="80" as="geometry" />
        </mxCell>
        <mxCell id="eZRgXxtGunZdMtfv_eY2-31" value="" style="endArrow=classic;html=1;rounded=0;fontColor=#000000;strokeColor=#FF0000;" edge="1" parent="1">
          <mxGeometry width="50" height="50" relative="1" as="geometry">
            <mxPoint x="239.76" y="240" as="sourcePoint" />
            <mxPoint x="239.76" y="320" as="targetPoint" />
          </mxGeometry>
        </mxCell>
        <mxCell id="eZRgXxtGunZdMtfv_eY2-32" value="" style="endArrow=classic;html=1;rounded=0;strokeColor=#FF0000;" edge="1" parent="1">
          <mxGeometry width="50" height="50" relative="1" as="geometry">
            <mxPoint x="320" y="239.76" as="sourcePoint" />
            <mxPoint x="400" y="239.76" as="targetPoint" />
          </mxGeometry>
        </mxCell>
        <mxCell id="eZRgXxtGunZdMtfv_eY2-33" value="" style="endArrow=classic;html=1;rounded=0;fontColor=#000000;strokeColor=#FF0000;" edge="1" parent="1">
          <mxGeometry width="50" height="50" relative="1" as="geometry">
            <mxPoint x="160" y="239.76" as="sourcePoint" />
            <mxPoint x="240" y="239.76" as="targetPoint" />
          </mxGeometry>
        </mxCell>
        <mxCell id="eZRgXxtGunZdMtfv_eY2-35" value="" style="endArrow=classic;html=1;rounded=0;fontColor=#000000;strokeColor=#FF0000;" edge="1" parent="1">
          <mxGeometry width="50" height="50" relative="1" as="geometry">
            <mxPoint x="240" y="319.76" as="sourcePoint" />
            <mxPoint x="160" y="319.76" as="targetPoint" />
          </mxGeometry>
        </mxCell>
        <mxCell id="eZRgXxtGunZdMtfv_eY2-36" value="" style="endArrow=classic;html=1;rounded=0;fontColor=#000000;strokeColor=#FF0000;" edge="1" parent="1">
          <mxGeometry width="50" height="50" relative="1" as="geometry">
            <mxPoint x="159.76" y="320" as="sourcePoint" />
            <mxPoint x="159.76" y="400" as="targetPoint" />
          </mxGeometry>
        </mxCell>
        <mxCell id="eZRgXxtGunZdMtfv_eY2-37" value="" style="endArrow=classic;html=1;rounded=0;fontColor=#000000;strokeColor=#FF0000;" edge="1" parent="1">
          <mxGeometry width="50" height="50" relative="1" as="geometry">
            <mxPoint x="159.76" y="400" as="sourcePoint" />
            <mxPoint x="159.76" y="480" as="targetPoint" />
          </mxGeometry>
        </mxCell>
        <mxCell id="eZRgXxtGunZdMtfv_eY2-38" value="" style="endArrow=classic;html=1;rounded=0;strokeColor=#FF0000;" edge="1" parent="1">
          <mxGeometry width="50" height="50" relative="1" as="geometry">
            <mxPoint x="160" y="479.76" as="sourcePoint" />
            <mxPoint x="240" y="479.76" as="targetPoint" />
          </mxGeometry>
        </mxCell>
        <mxCell id="eZRgXxtGunZdMtfv_eY2-40" value="" style="endArrow=classic;html=1;rounded=0;strokeColor=#FF0000;" edge="1" parent="1">
          <mxGeometry width="50" height="50" relative="1" as="geometry">
            <mxPoint x="239.76" y="479.76" as="sourcePoint" />
            <mxPoint x="239.76" y="400" as="targetPoint" />
          </mxGeometry>
        </mxCell>
        <mxCell id="eZRgXxtGunZdMtfv_eY2-41" value="" style="endArrow=classic;html=1;rounded=0;strokeColor=#FF0000;" edge="1" parent="1">
          <mxGeometry width="50" height="50" relative="1" as="geometry">
            <mxPoint x="240" y="399.76" as="sourcePoint" />
            <mxPoint x="320" y="399.76" as="targetPoint" />
          </mxGeometry>
        </mxCell>
        <mxCell id="eZRgXxtGunZdMtfv_eY2-43" value="" style="endArrow=classic;html=1;rounded=0;fontColor=#000000;strokeColor=#FF0000;" edge="1" parent="1">
          <mxGeometry width="50" height="50" relative="1" as="geometry">
            <mxPoint x="319.76" y="400" as="sourcePoint" />
            <mxPoint x="319.76" y="480" as="targetPoint" />
          </mxGeometry>
        </mxCell>
        <mxCell id="eZRgXxtGunZdMtfv_eY2-44" value="" style="endArrow=classic;html=1;rounded=0;strokeColor=#FF0000;" edge="1" parent="1">
          <mxGeometry width="50" height="50" relative="1" as="geometry">
            <mxPoint x="320" y="479.76" as="sourcePoint" />
            <mxPoint x="400" y="479.76" as="targetPoint" />
          </mxGeometry>
        </mxCell>
        <mxCell id="eZRgXxtGunZdMtfv_eY2-45" value="" style="endArrow=classic;html=1;rounded=0;strokeColor=#FF0000;" edge="1" parent="1">
          <mxGeometry width="50" height="50" relative="1" as="geometry">
            <mxPoint x="399.76" y="479.76" as="sourcePoint" />
            <mxPoint x="399.76" y="400" as="targetPoint" />
          </mxGeometry>
        </mxCell>
        <mxCell id="eZRgXxtGunZdMtfv_eY2-46" value="" style="endArrow=classic;html=1;rounded=0;strokeColor=#FF0000;" edge="1" parent="1">
          <mxGeometry width="50" height="50" relative="1" as="geometry">
            <mxPoint x="399.76" y="399.76" as="sourcePoint" />
            <mxPoint x="399.76" y="320" as="targetPoint" />
          </mxGeometry>
        </mxCell>
        <mxCell id="eZRgXxtGunZdMtfv_eY2-47" value="" style="endArrow=classic;html=1;rounded=0;fontColor=#000000;strokeColor=#FF0000;" edge="1" parent="1">
          <mxGeometry width="50" height="50" relative="1" as="geometry">
            <mxPoint x="400" y="319.76" as="sourcePoint" />
            <mxPoint x="320" y="319.76" as="targetPoint" />
          </mxGeometry>
        </mxCell>
        <mxCell id="eZRgXxtGunZdMtfv_eY2-48" value="" style="endArrow=classic;html=1;rounded=0;strokeColor=#FF0000;" edge="1" parent="1">
          <mxGeometry width="50" height="50" relative="1" as="geometry">
            <mxPoint x="319.76" y="319.76" as="sourcePoint" />
            <mxPoint x="319.76" y="240" as="targetPoint" />
          </mxGeometry>
        </mxCell>
      </root>
    </mxGraphModel>
  </diagram>
</mxfile>
